<svg width="10" height="10" viewBox="0 0 10 10" fill="none" xmlns="http://www.w3.org/2000/svg">
<g clip-path="url(#clip0_725_4282)">
<mask id="mask0_725_4282" style="mask-type:alpha" maskUnits="userSpaceOnUse" x="0" y="0" width="10" height="10">
<path d="M9.67684 3.36267L6.67902 2.92698L5.33891 0.210171C5.30231 0.135786 5.2421 0.0755698 5.16771 0.0389678C4.98116 -0.0531276 4.75446 0.0236186 4.66119 0.210171L3.32108 2.92698L0.32326 3.36267C0.24061 3.37447 0.165045 3.41344 0.10719 3.47247C0.0372468 3.54436 -0.00129513 3.64108 3.32322e-05 3.74137C0.00136159 3.84166 0.0424515 3.93732 0.114274 4.00733L2.28324 6.12198L1.77081 9.108C1.75879 9.17746 1.76648 9.2489 1.793 9.31421C1.81952 9.37953 1.8638 9.43611 1.92084 9.47753C1.97788 9.51896 2.04538 9.54357 2.11569 9.54859C2.18601 9.5536 2.25632 9.53881 2.31866 9.5059L5.00005 8.09613L7.68144 9.5059C7.75465 9.54486 7.83966 9.55785 7.92113 9.54368C8.12657 9.50826 8.26471 9.31344 8.22929 9.108L7.71686 6.12198L9.88583 4.00733C9.94486 3.94948 9.98383 3.87391 9.99563 3.79126C10.0275 3.58464 9.88347 3.39336 9.67684 3.36267V3.36267Z" fill="#006FFD"/>
</mask>
<g mask="url(#mask0_725_4282)">
<rect width="10" height="10" fill="#006FFD"/>
</g>
</g>
<defs>
<clipPath id="clip0_725_4282">
<rect width="10" height="10" fill="white"/>
</clipPath>
</defs>
</svg>
