<svg width="24" height="24" viewBox="0 0 24 24" fill="none" xmlns="http://www.w3.org/2000/svg">
<g clip-path="url(#clip0_707_4141)">
<mask id="mask0_707_4141" style="mask-type:alpha" maskUnits="userSpaceOnUse" x="0" y="2" width="24" height="20">
<path d="M8.59668 8.7161C8.59668 10.0968 7.52217 11.2161 6.19668 11.2161C4.8712 11.2161 3.79668 10.0968 3.79668 8.7161C3.79668 7.33539 4.8712 6.21611 6.19668 6.21611C7.52217 6.21611 8.59668 7.33539 8.59668 8.7161Z" fill="#006FFD"/>
<path fill-rule="evenodd" clip-rule="evenodd" d="M0 4.5C0 3.11929 1.07452 2 2.4 2H21.6C22.9255 2 24 3.11929 24 4.5V19.5C24 20.8807 22.9255 22 21.6 22H20.0158C20.0105 22 20.0053 22 20 22H2.94698C2.94246 22 2.93794 22 2.93342 22H2.4C1.07452 22 0 20.8807 0 19.5V4.5ZM2.4 3.875H21.6C21.9314 3.875 22.2 4.15482 22.2 4.5V12.2901L16.9857 7.00002L8.11461 16L5.50142 13.3489L1.8 17.1041V4.5C1.8 4.15482 2.06863 3.875 2.4 3.875Z" fill="#006FFD"/>
</mask>
<g mask="url(#mask0_707_4141)">
<rect width="24" height="24" fill="white"/>
</g>
</g>
<defs>
<clipPath id="clip0_707_4141">
<rect width="24.0009" height="24.0006" fill="white"/>
</clipPath>
</defs>
</svg>
